<svg id="svg" version="1.1" x="0px" y="0px" viewBox="0 -20 427.3 100.4" enable-background="new 0 0 427.3 100.4" xmlns="http://www.w3.org/2000/svg" xmlns:xlink="http://www.w3.org/1999/xlink" style="display: block;"><g id="svgg"><path id="path0" d="M238.400 8.600 C 238.400 8.930,238.126 9.200,237.790 9.200 C 237.432 9.200,237.081 9.696,236.940 10.400 C 236.753 11.333,236.487 11.600,235.740 11.600 C 234.993 11.600,234.727 11.867,234.540 12.800 C 234.408 13.460,234.053 14.000,233.750 14.000 C 233.447 14.000,233.200 14.270,233.200 14.600 C 233.200 14.930,232.930 15.200,232.600 15.200 C 232.270 15.200,232.000 15.470,232.000 15.800 C 232.000 16.130,231.730 16.400,231.400 16.400 C 230.956 16.400,230.800 16.867,230.800 18.200 L 230.800 20.000 232.600 20.000 C 233.933 20.000,234.400 19.844,234.400 19.400 C 234.400 19.070,234.670 18.800,235.000 18.800 C 235.330 18.800,235.600 18.530,235.600 18.200 C 235.600 17.800,236.000 17.600,236.800 17.600 C 237.460 17.600,238.000 17.420,238.000 17.200 C 238.000 16.782,239.439 15.200,239.819 15.200 C 239.940 15.200,240.480 14.724,241.019 14.142 C 242.163 12.908,242.481 9.200,241.443 9.200 C 241.136 9.200,240.782 8.930,240.655 8.600 C 240.529 8.270,239.969 8.000,239.413 8.000 C 238.779 8.000,238.400 8.225,238.400 8.600 M152.267 16.667 C 152.120 16.813,152.000 18.163,152.000 19.667 C 152.000 21.830,151.875 22.400,151.400 22.400 C 151.070 22.400,150.800 22.670,150.800 23.000 C 150.800 23.330,150.530 23.600,150.200 23.600 C 149.870 23.600,149.600 23.870,149.600 24.200 C 149.600 24.530,149.330 24.800,149.000 24.800 C 148.670 24.800,148.392 25.025,148.383 25.300 C 148.374 25.575,147.834 26.242,147.183 26.781 C 146.500 27.347,146.000 28.151,146.000 28.681 C 146.000 29.231,145.759 29.600,145.400 29.600 C 145.070 29.600,144.800 29.870,144.800 30.200 C 144.800 30.530,144.530 30.800,144.200 30.800 C 143.870 30.800,143.600 31.070,143.600 31.400 C 143.600 31.730,143.330 32.000,143.000 32.000 C 142.670 32.000,142.400 32.270,142.400 32.600 C 142.400 32.930,142.130 33.200,141.800 33.200 C 141.470 33.200,141.200 33.470,141.200 33.800 C 141.200 34.130,140.930 34.400,140.600 34.400 C 140.270 34.400,140.000 34.670,140.000 35.000 C 140.000 35.330,139.730 35.600,139.400 35.600 C 139.070 35.600,138.800 35.870,138.800 36.200 C 138.800 36.530,138.530 36.800,138.200 36.800 C 137.870 36.800,137.600 37.070,137.600 37.400 C 137.600 37.730,137.330 38.000,137.000 38.000 C 136.670 38.000,136.400 37.730,136.400 37.400 C 136.400 37.070,136.130 36.800,135.800 36.800 C 135.400 36.800,135.200 36.400,135.200 35.600 C 135.200 34.800,135.000 34.400,134.600 34.400 C 134.166 34.400,134.000 33.954,134.000 32.787 C 134.000 31.723,133.796 31.097,133.400 30.945 C 133.070 30.818,132.800 30.464,132.800 30.157 C 132.800 29.851,132.530 29.600,132.200 29.600 C 131.870 29.600,131.600 29.330,131.600 29.000 C 131.600 28.670,131.330 28.400,131.000 28.400 C 130.670 28.400,130.400 28.130,130.400 27.800 C 130.400 27.470,130.130 27.200,129.800 27.200 C 129.400 27.200,129.200 26.800,129.200 26.000 C 129.200 25.200,129.000 24.800,128.600 24.800 C 128.225 24.800,128.000 24.421,128.000 23.787 C 128.000 23.231,127.730 22.671,127.400 22.545 C 127.070 22.418,126.800 22.064,126.800 21.757 C 126.800 21.451,126.530 21.200,126.200 21.200 C 125.800 21.200,125.600 20.800,125.600 20.000 C 125.600 19.200,125.400 18.800,125.000 18.800 C 124.670 18.800,124.400 18.530,124.400 18.200 C 124.400 17.733,123.867 17.600,122.000 17.600 L 119.600 17.600 119.586 18.900 C 119.473 29.677,119.334 31.693,118.674 32.062 C 118.223 32.315,118.000 32.952,118.000 33.987 C 118.000 34.839,117.783 35.606,117.517 35.694 C 117.221 35.793,116.971 36.968,116.872 38.728 C 116.753 40.832,116.561 41.600,116.155 41.600 C 115.826 41.600,115.600 42.018,115.600 42.629 C 115.600 43.194,115.324 43.934,114.986 44.272 C 114.504 44.753,114.396 45.675,114.486 48.543 L 114.600 52.200 115.700 52.327 C 116.486 52.417,116.800 52.274,116.800 51.827 C 116.800 51.482,117.070 51.200,117.400 51.200 C 117.800 51.200,118.000 50.800,118.000 50.000 C 118.000 49.200,118.200 48.800,118.600 48.800 C 119.067 48.800,119.200 48.267,119.200 46.400 C 119.200 44.267,119.289 44.000,120.000 44.000 C 120.681 44.000,120.800 43.733,120.800 42.200 C 120.800 40.867,120.956 40.400,121.400 40.400 C 121.842 40.400,122.000 39.938,122.000 38.643 C 122.000 37.450,122.193 36.812,122.600 36.655 C 123.031 36.490,123.200 35.815,123.200 34.255 C 123.200 32.696,123.369 32.021,123.800 31.855 C 124.196 31.703,124.400 31.077,124.400 30.013 C 124.400 28.846,124.566 28.400,125.000 28.400 C 125.330 28.400,125.600 28.670,125.600 29.000 C 125.600 29.330,125.870 29.600,126.200 29.600 C 126.600 29.600,126.800 30.000,126.800 30.800 C 126.800 31.600,127.000 32.000,127.400 32.000 C 127.730 32.000,128.000 32.270,128.000 32.600 C 128.000 32.930,128.270 33.200,128.600 33.200 C 129.000 33.200,129.200 33.600,129.200 34.400 C 129.200 35.200,129.400 35.600,129.800 35.600 C 130.130 35.600,130.400 35.870,130.400 36.200 C 130.400 36.530,130.670 36.800,131.000 36.800 C 131.400 36.800,131.600 37.200,131.600 38.000 C 131.600 38.800,131.800 39.200,132.200 39.200 C 132.530 39.200,132.800 39.470,132.800 39.800 C 132.800 40.130,133.070 40.400,133.400 40.400 C 133.867 40.400,134.000 40.933,134.000 42.800 C 134.000 44.667,134.133 45.200,134.600 45.200 C 134.930 45.200,135.200 45.480,135.200 45.823 C 135.200 47.097,138.576 46.405,138.727 45.100 C 138.799 44.470,139.098 44.000,139.427 44.000 C 139.797 44.000,140.000 43.575,140.000 42.800 C 140.000 42.000,140.200 41.600,140.600 41.600 C 140.930 41.600,141.200 41.330,141.200 41.000 C 141.200 40.600,141.600 40.400,142.400 40.400 C 143.200 40.400,143.600 40.200,143.600 39.800 C 143.600 39.470,143.870 39.200,144.200 39.200 C 144.600 39.200,144.800 38.800,144.800 38.000 C 144.800 36.933,144.933 36.800,146.000 36.800 C 146.800 36.800,147.200 36.600,147.200 36.200 C 147.200 35.870,147.470 35.600,147.800 35.600 C 148.200 35.600,148.400 35.200,148.400 34.400 C 148.400 33.600,148.600 33.200,149.000 33.200 C 149.330 33.200,149.600 32.930,149.600 32.600 C 149.600 32.270,149.870 32.000,150.200 32.000 C 150.530 32.000,150.800 31.730,150.800 31.400 C 150.800 31.070,151.070 30.800,151.400 30.800 C 151.800 30.800,152.000 30.400,152.000 29.600 C 152.000 28.800,152.200 28.400,152.600 28.400 C 152.930 28.400,153.200 28.670,153.200 29.000 C 153.200 29.330,153.470 29.600,153.800 29.600 C 154.313 29.600,154.400 30.733,154.400 37.400 C 154.400 44.067,154.487 45.200,155.000 45.200 C 155.444 45.200,155.600 45.667,155.600 47.000 C 155.600 48.289,155.761 48.800,156.168 48.800 C 156.481 48.800,156.855 49.340,157.000 50.000 C 157.219 50.999,157.459 51.200,158.432 51.200 C 159.204 51.200,159.600 51.404,159.600 51.800 C 159.600 52.733,161.286 52.506,162.300 51.437 C 163.470 50.203,163.437 49.871,162.006 48.406 C 161.349 47.734,160.699 46.737,160.562 46.192 C 160.425 45.646,160.063 45.200,159.757 45.200 C 159.299 45.200,159.200 43.709,159.200 36.800 C 159.200 29.600,159.114 28.400,158.600 28.400 C 158.270 28.400,158.000 28.130,158.000 27.800 C 158.000 27.470,158.270 27.200,158.600 27.200 C 159.000 27.200,159.200 26.800,159.200 26.000 C 159.200 25.200,159.000 24.800,158.600 24.800 C 158.120 24.800,158.000 24.200,158.000 21.800 C 158.000 19.400,157.880 18.800,157.400 18.800 C 157.070 18.800,156.800 18.530,156.800 18.200 C 156.800 17.870,156.530 17.600,156.200 17.600 C 155.870 17.600,155.600 17.330,155.600 17.000 C 155.600 16.381,152.829 16.104,152.267 16.667 M174.000 20.600 C 174.000 20.930,173.730 21.200,173.400 21.200 C 173.070 21.200,172.800 21.470,172.800 21.800 C 172.800 22.130,172.530 22.400,172.200 22.400 C 171.870 22.400,171.600 22.670,171.600 23.000 C 171.600 23.330,171.330 23.600,171.000 23.600 C 170.533 23.600,170.400 24.133,170.400 26.000 C 170.400 27.867,170.267 28.400,169.800 28.400 C 169.400 28.400,169.200 28.800,169.200 29.600 C 169.200 30.400,169.000 30.800,168.600 30.800 C 168.133 30.800,168.000 31.333,168.000 33.200 C 168.000 35.067,167.867 35.600,167.400 35.600 C 166.889 35.600,166.800 36.667,166.800 42.800 L 166.800 50.000 168.000 50.000 C 168.800 50.000,169.200 50.200,169.200 50.600 C 169.200 51.067,169.733 51.200,171.600 51.200 C 173.467 51.200,174.000 51.067,174.000 50.600 C 174.000 50.270,174.270 50.000,174.600 50.000 C 174.930 50.000,175.200 49.730,175.200 49.400 C 175.200 49.070,175.470 48.800,175.800 48.800 C 176.130 48.800,176.400 48.530,176.400 48.200 C 176.400 47.870,176.670 47.600,177.000 47.600 C 177.330 47.600,177.600 47.330,177.600 47.000 C 177.600 46.670,177.870 46.400,178.200 46.400 C 178.530 46.400,178.800 46.130,178.800 45.800 C 178.800 45.470,179.070 45.200,179.400 45.200 C 179.730 45.200,180.000 44.930,180.000 44.600 C 180.000 44.270,180.270 44.000,180.600 44.000 C 181.000 44.000,181.200 43.600,181.200 42.800 C 181.200 42.000,181.400 41.600,181.800 41.600 C 182.130 41.600,182.400 41.330,182.400 41.000 C 182.400 40.670,182.670 40.400,183.000 40.400 C 183.495 40.400,183.600 41.133,183.600 44.600 C 183.600 48.067,183.705 48.800,184.200 48.800 C 184.600 48.800,184.800 49.200,184.800 50.000 L 184.800 51.200 187.200 51.200 C 189.067 51.200,189.600 51.067,189.600 50.600 C 189.600 50.270,189.870 50.000,190.200 50.000 C 190.600 50.000,190.800 49.600,190.800 48.800 C 190.800 48.000,190.600 47.600,190.200 47.600 C 189.800 47.600,189.600 47.200,189.600 46.400 C 189.600 45.333,189.467 45.200,188.400 45.200 C 187.333 45.200,187.200 45.067,187.200 44.000 C 187.200 43.200,187.400 42.800,187.800 42.800 C 188.304 42.800,188.400 41.933,188.400 37.400 C 188.400 32.867,188.496 32.000,189.000 32.000 C 189.500 32.000,189.600 31.200,189.600 27.200 L 189.600 22.400 187.200 22.400 C 185.333 22.400,184.800 22.267,184.800 21.800 C 184.800 21.356,184.333 21.200,183.000 21.200 C 181.667 21.200,181.200 21.044,181.200 20.600 C 181.200 20.111,180.533 20.000,177.600 20.000 C 174.667 20.000,174.000 20.111,174.000 20.600 M209.200 21.800 C 209.200 22.200,208.800 22.400,208.000 22.400 C 207.200 22.400,206.800 22.600,206.800 23.000 C 206.800 23.400,206.400 23.600,205.600 23.600 C 204.800 23.600,204.400 23.800,204.400 24.200 C 204.400 24.530,204.130 24.800,203.800 24.800 C 203.470 24.800,203.200 25.070,203.200 25.400 C 203.200 25.730,202.930 26.000,202.600 26.000 C 202.270 26.000,202.000 26.270,202.000 26.600 C 202.000 26.930,201.730 27.200,201.400 27.200 C 201.000 27.200,200.800 27.600,200.800 28.400 C 200.800 29.200,200.600 29.600,200.200 29.600 C 199.870 29.600,199.600 29.870,199.600 30.200 C 199.600 30.530,199.351 30.800,199.047 30.800 C 198.472 30.800,198.015 31.970,198.005 33.467 C 198.002 33.943,197.786 34.405,197.524 34.492 C 197.240 34.587,196.978 35.774,196.875 37.425 C 196.765 39.211,196.507 40.314,196.152 40.520 C 195.341 40.990,195.383 45.942,196.200 46.255 C 196.542 46.387,196.800 46.983,196.800 47.643 C 196.800 48.405,197.005 48.800,197.400 48.800 C 197.730 48.800,198.000 49.070,198.000 49.400 C 198.000 49.733,198.356 50.000,198.800 50.000 C 199.244 50.000,199.600 50.267,199.600 50.600 C 199.600 51.034,200.046 51.200,201.213 51.200 C 202.277 51.200,202.903 50.996,203.055 50.600 C 203.212 50.193,203.850 50.000,205.043 50.000 C 206.338 50.000,206.800 49.842,206.800 49.400 C 206.800 49.000,207.200 48.800,208.000 48.800 C 208.800 48.800,209.200 48.600,209.200 48.200 C 209.200 47.870,209.470 47.600,209.800 47.600 C 210.130 47.600,210.400 47.330,210.400 47.000 C 210.400 46.670,210.670 46.400,211.000 46.400 C 211.330 46.400,211.600 46.130,211.600 45.800 C 211.600 45.452,211.962 45.200,212.461 45.200 C 212.987 45.200,214.234 44.265,215.663 42.800 C 216.951 41.480,218.183 40.400,218.402 40.400 C 218.621 40.400,218.800 39.860,218.800 39.200 C 218.800 38.400,219.000 38.000,219.400 38.000 C 219.775 38.000,220.000 38.379,220.000 39.013 C 220.000 39.569,220.270 40.129,220.600 40.255 C 221.100 40.447,221.200 41.583,221.200 47.043 C 221.200 52.605,221.109 53.600,220.600 53.600 C 220.156 53.600,220.000 54.067,220.000 55.400 C 220.000 56.733,219.844 57.200,219.400 57.200 C 219.070 57.200,218.800 57.470,218.800 57.800 C 218.800 58.130,218.530 58.400,218.200 58.400 C 217.870 58.400,217.600 58.670,217.600 59.000 C 217.600 59.330,217.330 59.600,217.000 59.600 C 216.670 59.600,216.400 59.870,216.400 60.200 C 216.400 60.600,216.000 60.800,215.200 60.800 C 214.400 60.800,214.000 61.000,214.000 61.400 C 214.000 61.895,213.267 62.000,209.800 62.000 L 205.600 62.000 205.600 60.987 C 205.600 60.431,205.330 59.871,205.000 59.745 C 204.670 59.618,204.400 59.264,204.400 58.957 C 204.400 57.784,199.731 58.223,199.430 59.424 C 199.069 60.861,199.574 63.200,200.245 63.200 C 200.550 63.200,200.800 63.470,200.800 63.800 C 200.800 64.130,201.070 64.400,201.400 64.400 C 201.730 64.400,202.000 64.670,202.000 65.000 C 202.000 65.444,202.467 65.600,203.800 65.600 C 205.133 65.600,205.600 65.756,205.600 66.200 C 205.600 66.700,206.400 66.800,210.400 66.800 C 214.400 66.800,215.200 66.700,215.200 66.200 C 215.200 65.800,215.600 65.600,216.400 65.600 C 217.200 65.600,217.600 65.400,217.600 65.000 C 217.600 64.600,218.000 64.400,218.800 64.400 C 219.600 64.400,220.000 64.200,220.000 63.800 C 220.000 63.470,220.270 63.200,220.600 63.200 C 220.930 63.200,221.200 62.930,221.200 62.600 C 221.200 62.270,221.470 62.000,221.800 62.000 C 222.200 62.000,222.400 61.600,222.400 60.800 C 222.400 60.000,222.600 59.600,223.000 59.600 C 223.444 59.600,223.600 59.133,223.600 57.800 C 223.600 56.467,223.756 56.000,224.200 56.000 C 224.709 56.000,224.800 55.000,224.800 49.400 C 224.800 43.800,224.891 42.800,225.400 42.800 C 225.800 42.800,226.000 42.400,226.000 41.600 C 226.000 40.800,225.800 40.400,225.400 40.400 C 224.905 40.400,224.800 39.667,224.800 36.200 C 224.800 32.733,224.695 32.000,224.200 32.000 C 223.733 32.000,223.600 31.467,223.600 29.600 C 223.600 27.733,223.467 27.200,223.000 27.200 C 222.556 27.200,222.400 26.733,222.400 25.400 C 222.400 24.067,222.244 23.600,221.800 23.600 C 221.470 23.600,221.200 23.330,221.200 23.000 C 221.200 22.556,220.733 22.400,219.400 22.400 C 218.067 22.400,217.600 22.556,217.600 23.000 C 217.600 23.330,217.330 23.600,217.000 23.600 C 216.670 23.600,216.400 23.330,216.400 23.000 C 216.400 22.670,216.130 22.400,215.800 22.400 C 215.470 22.400,215.200 22.130,215.200 21.800 C 215.200 21.320,214.600 21.200,212.200 21.200 C 209.800 21.200,209.200 21.320,209.200 21.800 M256.400 23.000 C 256.400 23.330,256.130 23.600,255.800 23.600 C 255.400 23.600,255.200 24.000,255.200 24.800 C 255.200 25.600,255.000 26.000,254.600 26.000 C 254.270 26.000,254.000 26.270,254.000 26.600 C 254.000 26.930,253.730 27.200,253.400 27.200 C 253.000 27.200,252.800 27.600,252.800 28.400 C 252.800 29.200,252.600 29.600,252.200 29.600 C 251.733 29.600,251.600 30.133,251.600 32.000 C 251.600 33.867,251.467 34.400,251.000 34.400 C 250.533 34.400,250.400 34.933,250.400 36.800 C 250.400 38.667,250.267 39.200,249.800 39.200 C 249.356 39.200,249.200 39.667,249.200 41.000 C 249.200 42.333,249.356 42.800,249.800 42.800 C 250.267 42.800,250.400 43.333,250.400 45.200 C 250.400 47.067,250.533 47.600,251.000 47.600 C 251.400 47.600,251.600 48.000,251.600 48.800 C 251.600 49.600,251.800 50.000,252.200 50.000 C 252.530 50.000,252.800 50.270,252.800 50.600 C 252.800 51.100,253.600 51.200,257.600 51.200 C 261.600 51.200,262.400 51.100,262.400 50.600 C 262.400 50.200,262.800 50.000,263.600 50.000 C 264.400 50.000,264.800 49.800,264.800 49.400 C 264.800 49.000,265.200 48.800,266.000 48.800 C 266.800 48.800,267.200 48.600,267.200 48.200 C 267.200 47.870,267.470 47.600,267.800 47.600 C 268.130 47.600,268.400 47.330,268.400 47.000 C 268.400 46.670,268.670 46.400,269.000 46.400 C 269.330 46.400,269.600 46.130,269.600 45.800 C 269.600 45.470,269.870 45.200,270.200 45.200 C 270.644 45.200,270.800 44.733,270.800 43.400 C 270.800 42.067,270.956 41.600,271.400 41.600 C 271.867 41.600,272.000 41.067,272.000 39.200 C 272.000 36.767,270.459 35.538,269.745 37.400 C 269.618 37.730,269.264 38.000,268.957 38.000 C 268.605 38.000,268.400 38.441,268.400 39.200 C 268.400 40.000,268.200 40.400,267.800 40.400 C 267.470 40.400,267.200 40.670,267.200 41.000 C 267.200 41.330,266.930 41.600,266.600 41.600 C 266.270 41.600,266.000 41.870,266.000 42.200 C 266.000 42.575,265.621 42.800,264.987 42.800 C 264.431 42.800,263.871 43.070,263.745 43.400 C 263.618 43.730,263.264 44.000,262.957 44.000 C 262.651 44.000,262.400 44.270,262.400 44.600 C 262.400 45.000,262.000 45.200,261.200 45.200 C 260.400 45.200,260.000 45.400,260.000 45.800 C 260.000 46.267,259.467 46.400,257.600 46.400 L 255.200 46.400 255.200 45.200 C 255.200 44.400,255.000 44.000,254.600 44.000 C 254.120 44.000,254.000 43.400,254.000 41.000 C 254.000 38.600,254.120 38.000,254.600 38.000 C 255.044 38.000,255.200 37.533,255.200 36.200 C 255.200 34.867,255.356 34.400,255.800 34.400 C 256.195 34.400,256.400 34.005,256.400 33.243 C 256.400 32.583,256.658 31.987,257.000 31.855 C 257.330 31.729,257.600 31.169,257.600 30.613 C 257.600 29.979,257.825 29.600,258.200 29.600 C 258.530 29.600,258.800 29.330,258.800 29.000 C 258.800 28.600,259.200 28.400,260.000 28.400 C 261.067 28.400,261.200 28.533,261.200 29.600 C 261.200 30.400,261.400 30.800,261.800 30.800 C 262.244 30.800,262.400 31.267,262.400 32.600 L 262.400 34.400 264.800 34.400 L 267.200 34.400 267.200 32.000 C 267.200 30.133,267.067 29.600,266.600 29.600 C 266.133 29.600,266.000 29.067,266.000 27.200 L 266.000 24.800 264.800 24.800 C 264.000 24.800,263.600 24.600,263.600 24.200 C 263.600 23.870,263.330 23.600,263.000 23.600 C 262.670 23.600,262.400 23.330,262.400 23.000 C 262.400 22.520,261.800 22.400,259.400 22.400 C 257.000 22.400,256.400 22.520,256.400 23.000 M233.200 30.157 C 233.200 35.617,233.100 36.753,232.600 36.945 C 231.748 37.271,231.700 48.800,232.550 48.800 C 232.853 48.800,233.208 49.340,233.340 50.000 C 233.617 51.387,238.000 51.951,238.000 50.600 C 238.000 50.181,238.422 50.000,239.400 50.000 C 240.378 50.000,240.800 49.819,240.800 49.400 C 240.800 49.025,241.179 48.800,241.813 48.800 C 242.369 48.800,242.929 48.530,243.055 48.200 C 243.182 47.870,243.536 47.600,243.843 47.600 C 244.149 47.600,244.400 47.330,244.400 47.000 C 244.400 46.670,244.670 46.400,245.000 46.400 C 245.330 46.400,245.600 46.130,245.600 45.800 C 245.600 45.470,245.870 45.200,246.200 45.200 C 246.530 45.200,246.800 44.930,246.800 44.600 C 246.800 44.270,247.070 44.000,247.400 44.000 C 247.844 44.000,248.000 43.533,248.000 42.200 L 248.000 40.400 245.600 40.400 L 243.200 40.400 243.200 41.600 C 243.200 42.667,243.067 42.800,242.000 42.800 C 241.200 42.800,240.800 43.000,240.800 43.400 C 240.800 43.800,240.400 44.000,239.600 44.000 C 238.800 44.000,238.400 44.200,238.400 44.600 C 238.400 44.933,238.044 45.200,237.600 45.200 C 236.978 45.200,236.800 44.933,236.800 44.000 C 236.800 43.200,236.600 42.800,236.200 42.800 C 235.870 42.800,235.600 42.530,235.600 42.200 C 235.600 41.870,235.870 41.600,236.200 41.600 C 236.680 41.600,236.800 41.000,236.800 38.600 C 236.800 36.200,236.920 35.600,237.400 35.600 C 237.895 35.600,238.000 34.867,238.000 31.400 C 238.000 27.933,238.105 27.200,238.600 27.200 C 239.000 27.200,239.200 26.800,239.200 26.000 C 239.200 25.200,239.000 24.800,238.600 24.800 C 238.270 24.800,238.000 24.530,238.000 24.200 C 238.000 23.733,237.467 23.600,235.600 23.600 L 233.200 23.600 233.200 30.157 M180.145 25.400 C 180.271 25.730,180.811 26.000,181.345 26.000 C 181.878 26.000,182.418 26.270,182.545 26.600 C 182.671 26.930,183.231 27.200,183.787 27.200 C 184.421 27.200,184.800 27.425,184.800 27.800 C 184.800 28.130,184.530 28.400,184.200 28.400 C 183.805 28.400,183.600 28.795,183.600 29.557 C 183.600 30.217,183.342 30.813,183.000 30.945 C 182.670 31.071,182.400 31.631,182.400 32.187 C 182.400 32.821,182.175 33.200,181.800 33.200 C 181.470 33.200,181.200 33.451,181.200 33.757 C 181.200 34.064,180.930 34.418,180.600 34.545 C 180.270 34.671,180.000 35.231,180.000 35.787 C 180.000 36.421,179.775 36.800,179.400 36.800 C 179.070 36.800,178.800 37.070,178.800 37.400 C 178.800 37.730,178.530 38.000,178.200 38.000 C 177.870 38.000,177.600 38.270,177.600 38.600 C 177.600 38.930,177.330 39.200,177.000 39.200 C 176.600 39.200,176.400 39.600,176.400 40.400 C 176.400 41.467,176.267 41.600,175.200 41.600 C 174.133 41.600,174.000 41.733,174.000 42.800 C 174.000 43.867,173.867 44.000,172.800 44.000 C 172.000 44.000,171.600 44.200,171.600 44.600 C 171.600 44.930,171.330 45.200,171.000 45.200 C 170.605 45.200,170.400 44.805,170.400 44.043 C 170.400 43.383,170.658 42.787,171.000 42.655 C 171.455 42.481,171.600 41.744,171.600 39.613 C 171.600 37.379,171.724 36.800,172.200 36.800 C 172.667 36.800,172.800 36.267,172.800 34.400 C 172.800 32.533,172.933 32.000,173.400 32.000 C 173.844 32.000,174.000 31.533,174.000 30.200 C 174.000 28.867,174.156 28.400,174.600 28.400 C 174.930 28.400,175.200 28.220,175.200 28.000 C 175.200 27.481,176.681 26.000,177.200 26.000 C 177.420 26.000,177.600 25.730,177.600 25.400 C 177.600 25.005,177.995 24.800,178.757 24.800 C 179.417 24.800,180.013 25.058,180.145 25.400 M212.800 26.600 C 212.800 26.930,213.070 27.200,213.400 27.200 C 213.730 27.200,214.000 27.470,214.000 27.800 C 214.000 28.267,214.533 28.400,216.400 28.400 L 218.800 28.400 218.800 29.600 C 218.800 30.400,218.600 30.800,218.200 30.800 C 217.756 30.800,217.600 31.267,217.600 32.600 C 217.600 33.933,217.444 34.400,217.000 34.400 C 216.670 34.400,216.400 34.670,216.400 35.000 C 216.400 35.330,216.130 35.600,215.800 35.600 C 215.470 35.600,215.200 35.870,215.200 36.200 C 215.200 36.530,214.930 36.800,214.600 36.800 C 214.270 36.800,214.000 37.070,214.000 37.400 C 214.000 37.730,213.730 38.000,213.400 38.000 C 213.070 38.000,212.800 38.270,212.800 38.600 C 212.800 38.930,212.530 39.200,212.200 39.200 C 211.870 39.200,211.600 39.470,211.600 39.800 C 211.600 40.200,211.200 40.400,210.400 40.400 C 209.600 40.400,209.200 40.600,209.200 41.000 C 209.200 41.330,208.930 41.600,208.600 41.600 C 208.270 41.600,208.000 41.870,208.000 42.200 C 208.000 42.530,207.730 42.800,207.400 42.800 C 207.070 42.800,206.800 43.070,206.800 43.400 C 206.800 43.730,206.530 44.000,206.200 44.000 C 205.870 44.000,205.600 44.270,205.600 44.600 C 205.600 45.044,205.133 45.200,203.800 45.200 C 202.467 45.200,202.000 45.356,202.000 45.800 C 202.000 46.130,201.730 46.400,201.400 46.400 C 201.021 46.400,200.800 46.018,200.800 45.363 C 200.800 44.662,200.541 44.257,200.000 44.116 C 199.560 44.001,199.200 43.679,199.200 43.400 C 199.200 43.121,199.560 42.799,200.000 42.684 C 200.632 42.519,200.800 42.138,200.800 40.871 C 200.800 39.989,200.992 39.203,201.226 39.125 C 201.460 39.047,201.754 38.222,201.878 37.291 C 202.003 36.361,202.247 35.600,202.421 35.600 C 202.594 35.600,202.855 35.060,203.000 34.400 C 203.145 33.740,203.429 33.200,203.632 33.200 C 203.834 33.200,204.000 32.930,204.000 32.600 C 204.000 32.270,204.274 32.000,204.610 32.000 C 204.968 32.000,205.319 31.504,205.460 30.800 C 205.592 30.140,205.947 29.600,206.250 29.600 C 206.553 29.600,206.800 29.330,206.800 29.000 C 206.800 28.625,207.179 28.400,207.813 28.400 C 208.369 28.400,208.929 28.130,209.055 27.800 C 209.182 27.470,209.722 27.200,210.255 27.200 C 210.789 27.200,211.329 26.930,211.455 26.600 C 211.582 26.270,211.936 26.000,212.243 26.000 C 212.549 26.000,212.800 26.270,212.800 26.600 " stroke="none" fill="#030000" fill-rule="evenodd"></path><path id="path1" d="M273.331 35.400 C 273.333 36.940,273.405 37.521,273.492 36.691 C 273.579 35.861,273.577 34.601,273.489 33.891 C 273.400 33.181,273.329 33.860,273.331 35.400 " stroke="none" fill="#55aa55" fill-rule="evenodd"></path><path id="path2" d="M75.844 1.429 C 75.676 1.868,75.804 2.019,76.268 1.929 C 76.634 1.858,77.009 1.575,77.100 1.300 C 77.345 0.565,76.128 0.690,75.844 1.429 M79.684 1.358 C 79.968 1.665,80.338 1.832,80.507 1.730 C 80.964 1.453,80.440 0.800,79.761 0.800 C 79.274 0.800,79.261 0.900,79.684 1.358 M73.867 2.267 C 73.406 2.727,73.575 3.200,74.200 3.200 C 74.530 3.200,74.800 2.930,74.800 2.600 C 74.800 1.975,74.327 1.806,73.867 2.267 M81.542 7.500 C 81.510 10.085,81.465 12.875,81.442 13.700 C 81.419 14.524,81.521 15.199,81.669 15.200 C 81.817 15.200,81.956 12.410,81.978 9.000 C 82.000 5.590,81.924 2.800,81.809 2.800 C 81.694 2.800,81.574 4.915,81.542 7.500 M35.067 3.467 C 34.553 3.981,34.799 4.775,35.400 4.545 C 35.730 4.418,36.000 4.064,36.000 3.757 C 36.000 3.169,35.515 3.018,35.067 3.467 M42.368 4.962 C 42.995 5.716,44.139 5.820,43.902 5.100 C 43.811 4.825,43.310 4.538,42.788 4.462 C 41.959 4.341,41.906 4.404,42.368 4.962 M33.568 5.633 C 33.337 6.816,33.408 8.302,33.713 8.700 C 34.237 9.381,34.800 9.330,34.800 8.600 C 34.800 8.270,34.659 8.000,34.487 8.000 C 34.315 8.000,34.135 7.519,34.086 6.932 C 34.010 6.010,33.663 5.142,33.568 5.633 M45.044 6.171 C 45.328 6.910,46.545 7.035,46.300 6.300 C 46.209 6.025,45.834 5.742,45.468 5.671 C 45.004 5.581,44.876 5.732,45.044 6.171 M67.100 6.529 C 66.495 7.025,66.003 7.603,66.006 7.815 C 66.009 8.027,66.163 7.963,66.346 7.673 C 66.634 7.220,67.321 6.951,68.500 6.831 C 68.892 6.791,68.892 5.596,68.500 5.614 C 68.335 5.622,67.705 6.034,67.100 6.529 M48.000 7.367 C 48.000 7.715,48.285 8.000,48.633 8.000 C 49.340 8.000,49.217 7.139,48.475 6.892 C 48.214 6.805,48.000 7.018,48.000 7.367 M50.655 8.600 C 50.782 8.930,51.046 9.200,51.243 9.200 C 51.439 9.200,51.600 8.930,51.600 8.600 C 51.600 8.270,51.336 8.000,51.013 8.000 C 50.655 8.000,50.515 8.235,50.655 8.600 M63.600 8.400 C 63.600 8.901,64.024 8.901,64.800 8.400 C 65.285 8.086,65.228 8.011,64.500 8.006 C 64.005 8.003,63.600 8.180,63.600 8.400 M52.400 9.483 C 52.730 9.607,53.225 9.885,53.500 10.103 C 53.850 10.380,54.000 10.330,54.000 9.936 C 54.000 9.604,53.550 9.351,52.900 9.317 C 52.295 9.285,52.070 9.360,52.400 9.483 M61.855 9.800 C 61.720 10.152,61.850 10.400,62.170 10.400 C 62.469 10.400,62.818 10.130,62.945 9.800 C 63.080 9.448,62.950 9.200,62.630 9.200 C 62.331 9.200,61.982 9.470,61.855 9.800 M351.384 12.027 C 350.928 12.764,351.532 12.925,352.210 12.248 C 352.769 11.688,352.775 11.600,352.252 11.600 C 351.919 11.600,351.529 11.792,351.384 12.027 M357.851 12.188 C 357.987 12.543,358.270 12.777,358.479 12.707 C 359.079 12.507,358.907 11.813,358.223 11.671 C 357.795 11.582,357.680 11.742,357.851 12.188 M70.846 13.606 C 70.101 14.263,69.255 14.800,68.966 14.800 C 68.676 14.800,68.296 15.053,68.120 15.362 C 67.944 15.670,67.388 15.985,66.884 16.062 C 66.380 16.138,65.991 16.360,66.018 16.555 C 66.046 16.751,65.828 17.063,65.534 17.249 C 65.178 17.475,65.157 17.590,65.471 17.594 C 65.731 17.597,66.213 17.330,66.543 17.000 C 66.873 16.670,67.426 16.400,67.771 16.400 C 68.117 16.400,68.400 16.130,68.400 15.800 C 68.400 15.275,69.139 14.997,70.111 15.156 C 70.282 15.184,70.525 14.941,70.650 14.615 C 70.775 14.289,71.460 13.912,72.172 13.779 C 72.910 13.640,73.467 13.292,73.467 12.968 C 73.467 12.043,72.296 12.328,70.846 13.606 M304.702 13.066 C 304.979 13.177,305.105 13.431,304.982 13.630 C 304.859 13.828,305.037 13.884,305.377 13.754 C 306.150 13.457,305.787 12.789,304.876 12.832 C 304.456 12.851,304.390 12.940,304.702 13.066 M331.000 35.038 C 331.000 47.227,331.135 57.200,331.300 57.200 C 331.465 57.200,331.600 47.311,331.600 35.224 C 331.600 23.137,331.465 13.164,331.300 13.062 C 331.135 12.960,331.000 22.849,331.000 35.038 M44.044 16.600 C 43.991 18.540,44.109 19.200,44.508 19.200 C 44.855 19.200,45.079 19.795,45.143 20.888 C 45.198 21.817,45.346 22.672,45.471 22.788 C 45.597 22.905,45.614 21.929,45.510 20.620 C 45.406 19.311,45.114 18.171,44.860 18.087 C 43.784 17.728,44.333 15.203,45.500 15.146 C 46.443 15.099,46.472 15.066,45.700 14.918 C 45.205 14.822,44.800 14.577,44.800 14.372 C 44.800 12.551,44.099 14.618,44.044 16.600 M282.267 15.467 C 281.806 15.927,281.975 16.400,282.600 16.400 C 282.930 16.400,283.200 16.130,283.200 15.800 C 283.200 15.175,282.727 15.006,282.267 15.467 M49.200 17.000 C 49.200 17.385,49.586 17.600,50.276 17.600 C 51.309 17.600,51.321 17.576,50.576 17.013 C 49.577 16.257,49.200 16.253,49.200 17.000 M72.390 17.426 C 72.176 17.990,72.034 19.565,72.076 20.926 L 72.151 23.400 72.296 21.080 C 72.393 19.526,72.633 18.686,73.021 18.537 C 73.674 18.286,73.824 16.400,73.190 16.400 C 72.965 16.400,72.605 16.862,72.390 17.426 M80.509 18.400 C 80.509 19.390,80.587 19.795,80.682 19.300 C 80.778 18.805,80.778 17.995,80.682 17.500 C 80.587 17.005,80.509 17.410,80.509 18.400 M35.818 18.500 C 36.152 19.607,36.701 20.232,37.041 19.892 C 37.181 19.753,37.002 19.345,36.644 18.987 C 36.286 18.629,36.095 18.170,36.220 17.968 C 36.345 17.765,36.244 17.600,35.997 17.600 C 35.716 17.600,35.648 17.938,35.818 18.500 M51.690 18.071 C 51.774 18.322,52.254 18.590,52.758 18.666 C 53.262 18.743,54.057 19.075,54.526 19.403 C 55.839 20.323,56.699 20.193,55.809 19.209 C 55.415 18.775,54.945 18.510,54.764 18.622 C 54.583 18.734,53.783 18.553,52.987 18.220 C 52.038 17.824,51.591 17.772,51.690 18.071 M63.453 18.191 C 62.733 18.736,62.736 18.755,63.542 18.694 C 64.003 18.660,64.468 18.399,64.577 18.116 C 64.833 17.449,64.394 17.479,63.453 18.191 M61.247 19.455 C 60.769 19.995,60.791 20.060,61.414 19.939 C 61.810 19.863,62.209 19.575,62.300 19.300 C 62.530 18.610,61.916 18.700,61.247 19.455 M293.200 19.433 C 292.215 19.980,292.214 19.988,293.100 19.994 C 293.595 19.997,294.000 19.809,294.000 19.576 C 294.000 19.343,294.168 19.256,294.372 19.383 C 294.577 19.509,294.858 19.430,294.996 19.207 C 295.342 18.646,294.405 18.765,293.200 19.433 M297.855 19.400 C 297.982 19.730,298.471 19.979,298.943 19.954 C 299.619 19.917,299.652 19.869,299.100 19.724 C 298.715 19.624,298.400 19.375,298.400 19.171 C 298.400 18.967,298.226 18.800,298.013 18.800 C 297.799 18.800,297.729 19.070,297.855 19.400 M370.818 19.634 C 371.064 20.093,371.362 20.371,371.482 20.252 C 371.812 19.922,371.283 18.800,370.798 18.800 C 370.503 18.800,370.509 19.056,370.818 19.634 M57.600 20.351 C 57.600 20.998,58.926 21.245,59.472 20.700 C 59.911 20.260,59.797 20.155,58.801 20.079 C 58.140 20.028,57.600 20.151,57.600 20.351 M347.900 21.076 C 347.515 21.176,347.200 21.425,347.200 21.629 C 347.200 22.153,347.674 22.070,348.576 21.387 C 349.354 20.799,349.210 20.733,347.900 21.076 M361.861 21.414 C 362.146 22.157,363.200 22.487,363.200 21.834 C 363.200 21.537,362.853 21.203,362.430 21.092 C 361.908 20.955,361.725 21.059,361.861 21.414 M304.400 22.200 C 304.917 22.750,305.514 23.200,305.728 23.200 C 305.942 23.200,305.631 22.750,305.038 22.200 C 304.444 21.650,303.847 21.200,303.710 21.200 C 303.573 21.200,303.883 21.650,304.400 22.200 M45.428 24.103 C 45.582 24.596,45.843 25.090,46.008 25.200 C 46.173 25.310,46.408 25.760,46.530 26.200 C 46.653 26.640,46.680 26.280,46.592 25.400 C 46.503 24.520,46.423 23.774,46.415 23.743 C 46.407 23.711,46.118 23.577,45.774 23.445 C 45.278 23.255,45.206 23.391,45.428 24.103 M284.858 24.207 C 283.635 25.497,284.044 25.492,285.438 24.200 C 286.031 23.650,286.356 23.203,286.158 23.207 C 285.961 23.211,285.376 23.661,284.858 24.207 M346.500 23.465 C 345.804 23.746,345.873 24.400,346.600 24.400 C 346.930 24.400,347.200 24.130,347.200 23.800 C 347.200 23.470,347.155 23.214,347.100 23.232 C 347.045 23.249,346.775 23.354,346.500 23.465 M37.200 24.236 C 37.200 24.572,37.365 24.745,37.566 24.621 C 37.767 24.497,38.023 24.621,38.134 24.898 C 38.263 25.218,38.348 25.162,38.368 24.743 C 38.386 24.381,38.130 23.982,37.800 23.855 C 37.428 23.713,37.200 23.857,37.200 24.236 M72.120 25.600 C 72.120 26.810,72.195 27.305,72.287 26.700 C 72.378 26.095,72.378 25.105,72.287 24.500 C 72.195 23.895,72.120 24.390,72.120 25.600 M80.246 25.526 C 80.133 25.708,80.392 26.158,80.820 26.525 C 81.249 26.892,81.600 27.001,81.600 26.768 C 81.600 26.153,80.488 25.133,80.246 25.526 M38.093 27.600 C 38.093 28.370,38.175 28.685,38.276 28.300 C 38.376 27.915,38.376 27.285,38.276 26.900 C 38.175 26.515,38.093 26.830,38.093 27.600 M307.556 27.500 C 307.840 28.042,308.380 28.387,308.914 28.368 C 309.502 28.347,309.598 28.263,309.200 28.116 C 308.870 27.995,308.259 27.604,307.842 27.248 C 307.120 26.631,307.106 26.643,307.556 27.500 M46.493 28.400 C 46.493 29.170,46.575 29.485,46.676 29.100 C 46.776 28.715,46.776 28.085,46.676 27.700 C 46.575 27.315,46.493 27.630,46.493 28.400 M82.000 27.553 C 82.000 27.921,84.554 30.000,85.008 30.000 C 85.151 30.000,84.620 29.370,83.827 28.600 C 82.330 27.146,82.000 26.957,82.000 27.553 M311.023 27.833 C 310.374 28.307,310.354 28.400,310.900 28.400 C 311.259 28.400,311.671 28.208,311.816 27.973 C 312.240 27.287,311.861 27.220,311.023 27.833 M72.138 29.197 C 72.185 30.261,72.390 30.622,73.000 30.713 C 73.727 30.821,73.740 30.784,73.139 30.300 C 72.775 30.008,72.387 29.326,72.277 28.784 C 72.144 28.131,72.097 28.270,72.138 29.197 M37.246 28.900 C 37.221 29.285,36.930 29.600,36.600 29.600 C 36.270 29.600,36.000 29.870,36.000 30.200 C 36.000 30.530,35.775 30.806,35.500 30.813 C 34.827 30.829,33.495 32.706,33.802 33.204 C 34.173 33.803,34.800 33.678,34.800 33.005 C 34.800 32.678,35.450 31.815,36.245 31.087 C 37.244 30.171,37.629 29.521,37.491 28.981 C 37.325 28.327,37.285 28.314,37.246 28.900 M350.702 28.641 C 350.979 28.766,351.122 29.003,351.020 29.167 C 350.918 29.332,351.102 29.467,351.429 29.467 C 352.286 29.467,351.878 28.617,350.967 28.507 C 350.545 28.456,350.426 28.516,350.702 28.641 M46.446 30.500 C 46.395 31.270,45.034 32.800,44.400 32.800 C 44.180 32.800,44.000 33.019,44.000 33.287 C 44.000 33.555,43.521 34.186,42.936 34.689 C 42.351 35.191,41.673 36.007,41.429 36.501 C 41.185 36.996,40.584 37.578,40.093 37.795 C 39.602 38.012,39.200 38.417,39.200 38.695 C 39.200 38.973,38.930 39.200,38.600 39.200 C 38.270 39.200,38.000 39.470,38.000 39.800 C 38.000 40.130,38.135 40.400,38.300 40.400 C 38.740 40.400,45.600 33.149,45.600 32.684 C 45.600 32.466,45.890 32.076,46.243 31.818 C 46.610 31.549,46.802 31.014,46.690 30.574 C 46.523 29.918,46.486 29.907,46.446 30.500 M360.000 31.021 C 360.000 31.104,360.381 31.376,360.846 31.625 C 361.505 31.977,361.655 31.966,361.525 31.574 C 361.377 31.131,360.000 30.632,360.000 31.021 M74.197 32.113 C 74.855 32.601,75.698 33.303,76.070 33.673 C 77.158 34.756,78.804 35.730,79.079 35.454 C 79.219 35.314,79.123 35.200,78.867 35.200 C 78.610 35.200,78.396 34.975,78.392 34.700 C 78.387 34.425,77.324 33.525,76.030 32.700 C 73.471 31.068,72.270 30.684,74.197 32.113 M281.731 34.600 C 281.733 36.140,281.805 36.721,281.892 35.891 C 281.979 35.061,281.977 33.801,281.889 33.091 C 281.800 32.381,281.729 33.060,281.731 34.600 M342.390 33.582 C 342.631 34.032,343.002 34.400,343.214 34.400 C 343.869 34.400,343.642 33.819,342.776 33.278 C 342.015 32.803,341.986 32.826,342.390 33.582 M32.109 34.232 C 30.910 35.600,30.684 36.000,31.114 36.000 C 31.690 36.000,33.600 34.223,33.600 33.687 C 33.600 32.931,33.083 33.120,32.109 34.232 M88.800 34.000 C 89.035 34.440,89.496 34.800,89.824 34.800 C 90.152 34.800,91.155 35.594,92.053 36.565 C 93.601 38.238,95.200 39.151,95.200 38.363 C 95.200 38.163,95.014 38.000,94.787 38.000 C 94.559 38.000,93.845 37.460,93.200 36.800 C 92.555 36.140,91.830 35.600,91.590 35.600 C 91.349 35.600,91.256 35.433,91.382 35.229 C 91.508 35.025,91.266 34.748,90.843 34.614 C 90.420 34.479,89.973 34.106,89.850 33.785 C 89.726 33.463,89.343 33.200,88.998 33.200 C 88.496 33.200,88.457 33.358,88.800 34.000 M295.829 33.809 C 295.405 34.129,295.159 34.492,295.282 34.615 C 295.404 34.738,295.780 34.563,296.116 34.227 C 296.618 33.725,298.251 33.595,305.263 33.500 L 313.800 33.383 305.200 33.304 C 298.195 33.240,296.457 33.334,295.829 33.809 M366.971 33.809 C 367.793 34.430,368.252 34.332,367.816 33.627 C 367.671 33.392,367.248 33.206,366.876 33.213 C 366.283 33.224,366.294 33.297,366.971 33.809 M347.455 36.200 C 347.582 36.530,347.958 36.800,348.292 36.800 C 348.785 36.800,348.805 36.688,348.400 36.200 C 348.126 35.870,347.750 35.600,347.564 35.600 C 347.377 35.600,347.329 35.870,347.455 36.200 M351.288 37.265 C 351.374 37.521,351.759 37.776,352.144 37.833 C 352.707 37.916,352.752 37.824,352.373 37.368 C 351.806 36.684,351.071 36.614,351.288 37.265 M28.545 38.600 C 28.418 38.930,28.064 39.200,27.757 39.200 C 27.451 39.200,27.200 39.470,27.200 39.800 C 27.200 40.130,26.930 40.400,26.600 40.400 C 26.270 40.400,26.000 40.670,26.000 41.000 C 26.000 41.330,25.730 41.600,25.400 41.600 C 25.070 41.600,24.800 41.851,24.800 42.157 C 24.800 42.464,24.530 42.818,24.200 42.945 C 23.816 43.092,23.622 43.647,23.660 44.487 C 23.716 45.707,23.732 45.722,23.887 44.693 C 23.994 43.984,24.224 43.684,24.527 43.857 C 24.787 44.006,24.880 43.995,24.734 43.831 C 24.587 43.668,25.172 42.850,26.034 42.014 C 26.895 41.178,27.600 40.293,27.600 40.047 C 27.600 39.801,27.774 39.600,27.986 39.600 C 28.198 39.600,28.565 39.240,28.800 38.800 C 29.035 38.360,29.126 38.000,29.002 38.000 C 28.877 38.000,28.671 38.270,28.545 38.600 M356.100 38.500 C 356.191 38.775,356.566 39.058,356.932 39.129 C 357.396 39.219,357.524 39.068,357.356 38.629 C 357.072 37.890,355.855 37.765,356.100 38.500 M95.502 39.466 C 95.779 39.577,95.926 39.797,95.829 39.953 C 95.732 40.110,95.818 40.500,96.020 40.819 C 96.296 41.255,96.389 41.125,96.394 40.300 C 96.398 39.505,96.206 39.209,95.700 39.232 C 95.278 39.251,95.199 39.344,95.502 39.466 M96.749 42.135 C 97.106 42.567,97.141 42.800,96.849 42.800 C 96.602 42.800,96.419 42.935,96.443 43.100 C 96.560 43.910,95.836 45.116,94.873 45.715 L 93.800 46.383 94.915 46.303 C 95.739 46.244,96.095 45.961,96.282 45.216 C 96.421 44.661,96.784 43.959,97.087 43.655 C 97.763 42.979,97.613 41.937,96.800 41.668 C 96.286 41.498,96.278 41.565,96.749 42.135 M41.466 43.200 C 41.949 43.395,42.834 43.399,43.466 43.209 C 44.446 42.915,44.328 42.868,42.600 42.860 C 41.072 42.853,40.804 42.933,41.466 43.200 M344.800 43.102 C 344.800 43.322,345.070 43.726,345.400 44.000 C 345.735 44.278,346.000 44.321,346.000 44.098 C 346.000 43.878,345.730 43.474,345.400 43.200 C 345.065 42.922,344.800 42.879,344.800 43.102 M373.672 44.326 C 373.632 45.276,373.414 46.401,373.186 46.826 C 372.897 47.366,372.901 47.600,373.198 47.600 C 373.853 47.600,374.062 46.686,373.896 44.549 L 373.744 42.600 373.672 44.326 M52.013 44.228 C 52.006 44.463,52.450 45.047,53.000 45.525 C 53.550 46.003,54.000 46.647,54.000 46.955 C 54.000 47.262,54.270 47.618,54.600 47.745 C 54.930 47.871,55.200 47.813,55.200 47.616 C 55.200 47.419,54.930 46.987,54.600 46.657 C 54.270 46.327,54.000 45.864,54.000 45.629 C 54.000 45.393,53.795 45.200,53.544 45.200 C 53.293 45.200,52.849 44.885,52.557 44.500 C 52.265 44.115,52.020 43.993,52.013 44.228 M68.100 44.963 C 67.605 45.485,67.221 46.337,67.246 46.856 C 67.287 47.675,67.318 47.694,67.485 47.000 C 67.591 46.560,68.144 45.705,68.714 45.100 C 69.283 44.495,69.581 44.003,69.375 44.007 C 69.169 44.011,68.595 44.441,68.100 44.963 M73.200 44.311 C 73.200 44.482,73.740 45.213,74.400 45.936 C 75.060 46.658,75.600 47.418,75.600 47.625 C 75.600 47.831,75.870 48.000,76.200 48.000 C 77.162 48.000,76.907 47.377,75.231 45.633 C 73.681 44.019,73.200 43.706,73.200 44.311 M274.892 44.475 C 274.979 44.736,275.264 45.021,275.525 45.108 C 275.818 45.206,275.907 45.023,275.757 44.633 C 275.478 43.906,274.652 43.755,274.892 44.475 M78.475 45.625 C 78.571 45.914,78.886 46.229,79.175 46.325 C 79.475 46.425,79.625 46.275,79.525 45.975 C 79.429 45.686,79.114 45.371,78.825 45.275 C 78.525 45.175,78.375 45.325,78.475 45.625 M284.413 45.442 C 284.433 45.983,285.989 47.744,286.232 47.501 C 286.349 47.384,285.984 46.793,285.422 46.186 C 284.860 45.579,284.406 45.244,284.413 45.442 M23.600 47.333 C 23.600 48.466,23.759 48.799,24.300 48.794 C 24.695 48.790,24.826 48.660,24.600 48.494 C 24.380 48.332,24.137 47.750,24.061 47.200 C 23.844 45.643,23.600 45.714,23.600 47.333 M88.800 47.059 L 87.800 47.588 88.876 47.594 C 89.468 47.597,90.056 47.432,90.183 47.228 C 90.575 46.592,89.848 46.504,88.800 47.059 M337.600 47.700 C 337.600 48.059,337.792 48.471,338.027 48.616 C 338.713 49.040,338.780 48.661,338.167 47.823 C 337.693 47.174,337.600 47.154,337.600 47.700 M287.200 47.897 C 287.200 48.320,289.247 50.000,289.762 50.000 C 289.893 50.000,290.000 49.820,290.000 49.600 C 290.000 49.380,289.737 49.200,289.416 49.200 C 289.094 49.200,288.464 48.806,288.016 48.325 C 287.567 47.843,287.200 47.651,287.200 47.897 M55.248 49.042 C 55.604 49.459,55.995 50.070,56.116 50.400 C 56.263 50.798,56.347 50.702,56.368 50.114 C 56.387 49.580,56.042 49.040,55.500 48.756 C 54.643 48.306,54.631 48.320,55.248 49.042 M277.275 49.225 C 277.371 49.514,277.686 49.829,277.975 49.925 C 278.275 50.025,278.425 49.875,278.325 49.575 C 278.229 49.286,277.914 48.971,277.625 48.875 C 277.325 48.775,277.175 48.925,277.275 49.225 M67.200 49.525 C 67.200 50.080,70.346 53.787,70.601 53.532 C 70.695 53.438,70.328 52.883,69.786 52.298 C 69.244 51.713,68.800 50.963,68.800 50.632 C 68.800 50.300,68.440 49.835,68.000 49.600 C 67.560 49.365,67.200 49.331,67.200 49.525 M372.051 49.960 C 371.749 50.151,371.584 50.553,371.684 50.853 C 371.811 51.232,372.012 51.125,372.347 50.499 C 372.879 49.505,372.851 49.454,372.051 49.960 M33.434 50.543 C 33.623 51.037,34.197 51.197,35.743 51.188 C 37.189 51.179,37.613 51.066,37.171 50.808 C 36.825 50.605,36.015 50.499,35.371 50.572 C 34.727 50.645,33.971 50.521,33.691 50.296 C 33.308 49.989,33.244 50.050,33.434 50.543 M292.000 50.292 C 292.330 50.417,292.725 50.713,292.878 50.948 C 293.031 51.184,293.296 51.237,293.467 51.067 C 293.837 50.696,292.848 50.002,292.000 50.038 C 291.467 50.060,291.467 50.089,292.000 50.292 M359.600 50.345 C 359.600 50.534,360.050 50.603,360.600 50.498 C 361.150 50.393,361.600 50.238,361.600 50.153 C 361.600 50.069,361.150 50.000,360.600 50.000 C 360.050 50.000,359.600 50.155,359.600 50.345 M46.800 51.813 C 46.800 52.136,47.070 52.400,47.400 52.400 C 47.730 52.400,48.000 52.239,48.000 52.043 C 48.000 51.846,47.730 51.582,47.400 51.455 C 47.035 51.315,46.800 51.455,46.800 51.813 M56.800 51.558 C 56.800 51.780,57.004 52.411,57.254 52.959 C 57.784 54.121,58.800 54.657,58.800 53.775 C 58.800 53.445,58.530 53.071,58.200 52.945 C 57.870 52.818,57.600 52.474,57.600 52.181 C 57.600 51.887,57.420 51.536,57.200 51.400 C 56.980 51.264,56.800 51.335,56.800 51.558 M80.162 52.273 C 80.710 52.863,81.092 53.451,81.013 53.579 C 80.933 53.708,81.303 54.018,81.834 54.269 C 82.365 54.520,82.800 54.562,82.800 54.362 C 82.800 54.163,82.665 53.999,82.500 53.997 C 82.335 53.996,81.772 53.366,81.248 52.597 C 80.725 51.829,80.043 51.200,79.732 51.200 C 79.353 51.200,79.494 51.552,80.162 52.273 M313.384 52.827 C 313.239 53.061,313.216 53.349,313.333 53.467 C 313.620 53.753,314.400 53.248,314.400 52.776 C 314.400 52.265,313.709 52.299,313.384 52.827 M64.700 53.882 C 65.195 53.978,66.005 53.978,66.500 53.882 C 66.995 53.787,66.590 53.709,65.600 53.709 C 64.610 53.709,64.205 53.787,64.700 53.882 M67.400 54.400 C 67.264 54.620,67.343 54.800,67.576 54.800 C 67.809 54.800,68.360 55.160,68.800 55.600 C 69.299 56.099,69.600 56.207,69.600 55.889 C 69.600 54.909,67.827 53.709,67.400 54.400 M49.232 55.100 C 49.210 55.705,49.430 55.998,49.900 55.994 C 50.332 55.990,50.431 55.875,50.160 55.694 C 49.918 55.532,49.617 55.130,49.492 54.800 C 49.339 54.399,49.253 54.499,49.232 55.100 M58.800 55.557 C 58.800 55.754,59.070 56.018,59.400 56.145 C 59.765 56.285,60.000 56.145,60.000 55.787 C 60.000 55.464,59.730 55.200,59.400 55.200 C 59.070 55.200,58.800 55.361,58.800 55.557 M82.800 55.800 C 82.800 56.130,83.070 56.400,83.400 56.400 C 83.730 56.400,84.000 56.670,84.000 57.000 C 84.000 57.330,84.283 57.600,84.629 57.600 C 85.200 57.600,85.200 57.543,84.629 56.971 C 84.283 56.626,84.000 56.086,84.000 55.771 C 84.000 55.457,83.730 55.200,83.400 55.200 C 83.070 55.200,82.800 55.470,82.800 55.800 M61.700 56.265 C 61.425 56.376,61.200 56.705,61.200 56.996 C 61.200 57.347,60.897 57.447,60.300 57.293 C 59.498 57.087,59.460 57.134,59.949 57.731 C 60.745 58.701,61.334 58.558,62.136 57.200 C 62.825 56.034,62.737 55.846,61.700 56.265 M74.587 57.872 C 74.736 58.704,75.414 59.540,76.926 60.757 C 77.542 61.252,77.587 61.229,77.339 60.557 C 77.186 60.140,76.822 59.656,76.530 59.480 C 76.239 59.304,76.000 58.869,76.000 58.513 C 76.000 58.158,75.883 57.984,75.740 58.127 C 75.596 58.270,75.243 58.075,74.955 57.694 C 74.475 57.058,74.444 57.073,74.587 57.872 M290.501 57.600 C 290.590 57.930,291.099 58.233,291.631 58.274 C 292.395 58.332,292.431 58.301,291.800 58.128 C 291.360 58.007,290.851 57.703,290.670 57.454 C 290.451 57.154,290.394 57.204,290.501 57.600 M350.000 57.800 C 350.000 58.130,350.180 58.400,350.400 58.400 C 350.620 58.400,350.800 58.130,350.800 57.800 C 350.800 57.470,350.620 57.200,350.400 57.200 C 350.180 57.200,350.000 57.470,350.000 57.800 M50.594 58.010 C 50.455 58.235,50.560 58.370,50.828 58.310 C 51.096 58.249,51.475 58.785,51.669 59.500 C 52.063 60.946,52.800 61.257,52.800 59.976 C 52.800 59.523,52.639 59.252,52.443 59.374 C 52.246 59.495,51.973 59.146,51.835 58.597 C 51.575 57.561,51.031 57.303,50.594 58.010 M86.879 60.020 C 87.252 60.238,87.961 61.133,88.453 62.008 C 88.945 62.884,89.595 63.600,89.897 63.600 C 90.200 63.600,90.335 63.781,90.198 64.003 C 90.061 64.224,90.224 64.511,90.559 64.640 C 90.895 64.769,91.279 65.220,91.414 65.643 C 91.548 66.066,91.811 66.317,91.999 66.201 C 92.186 66.085,92.422 66.307,92.523 66.695 C 92.675 67.278,92.715 67.257,92.754 66.575 C 92.779 66.121,92.260 65.232,91.600 64.600 C 90.940 63.968,90.400 63.319,90.400 63.158 C 90.400 62.623,87.272 59.600,86.731 59.612 C 86.383 59.620,86.434 59.761,86.879 60.020 M77.700 61.876 C 78.085 61.976,78.400 62.315,78.400 62.629 C 78.400 62.943,78.668 63.200,78.996 63.200 C 79.495 63.200,79.480 63.069,78.907 62.400 C 78.530 61.960,77.947 61.621,77.611 61.646 C 77.156 61.681,77.178 61.739,77.700 61.876 M68.000 62.824 C 68.000 63.057,67.820 63.136,67.600 63.000 C 67.380 62.864,67.200 63.118,67.200 63.564 C 67.200 64.120,67.388 64.303,67.800 64.145 C 68.338 63.938,68.691 62.400,68.200 62.400 C 68.090 62.400,68.000 62.591,68.000 62.824 M55.232 65.700 C 55.210 66.461,55.400 66.800,55.849 66.800 C 56.312 66.800,56.385 66.657,56.103 66.300 C 55.885 66.025,55.607 65.530,55.485 65.200 C 55.359 64.858,55.250 65.073,55.232 65.700 M66.184 66.027 C 66.039 66.261,66.016 66.549,66.133 66.667 C 66.420 66.953,67.200 66.448,67.200 65.976 C 67.200 65.465,66.509 65.499,66.184 66.027 M82.000 67.119 C 82.000 67.294,82.532 67.879,83.183 68.419 C 83.834 68.958,84.374 69.625,84.383 69.900 C 84.392 70.175,84.670 70.400,85.000 70.400 C 85.330 70.400,85.600 70.670,85.600 71.000 C 85.600 71.330,85.870 71.600,86.200 71.600 C 86.530 71.600,86.800 71.870,86.800 72.200 C 86.800 72.530,86.980 72.800,87.200 72.800 C 87.861 72.800,87.667 72.441,86.233 71.007 C 85.482 70.255,84.749 69.271,84.606 68.820 C 84.463 68.369,84.088 68.000,83.773 68.000 C 83.458 68.000,83.200 67.730,83.200 67.400 C 83.200 67.070,82.930 66.800,82.600 66.800 C 82.270 66.800,82.000 66.943,82.000 67.119 M56.400 67.977 C 56.400 68.408,56.644 68.904,56.941 69.080 C 57.239 69.256,57.588 69.670,57.717 70.000 C 57.846 70.330,57.926 70.035,57.894 69.345 C 57.828 67.904,56.400 66.595,56.400 67.977 M93.480 67.741 C 94.160 68.892,96.044 70.890,96.252 70.682 C 96.577 70.356,94.728 67.997,94.336 68.239 C 94.151 68.354,94.000 68.167,94.000 67.824 C 94.000 67.481,93.811 67.200,93.580 67.200 C 93.336 67.200,93.294 67.427,93.480 67.741 M63.777 70.567 C 63.350 70.879,63.110 71.244,63.243 71.377 C 63.639 71.772,64.800 71.160,64.800 70.557 C 64.800 69.865,64.736 69.866,63.777 70.567 M95.566 74.724 C 94.613 75.739,94.302 76.400,94.776 76.400 C 95.009 76.400,95.200 76.130,95.200 75.800 C 95.200 75.470,95.470 75.200,95.800 75.200 C 96.130 75.200,96.400 74.930,96.400 74.600 C 96.400 73.869,96.362 73.875,95.566 74.724 " stroke="none" fill="#14764e" fill-rule="evenodd"></path><path id="path3" d="M77.039 1.442 C 76.922 1.749,76.369 2.000,75.813 2.000 C 75.179 2.000,74.800 2.225,74.800 2.600 C 74.800 2.970,74.424 3.200,73.820 3.200 C 73.281 3.200,72.679 3.487,72.482 3.838 C 72.286 4.190,71.670 4.505,71.114 4.538 C 70.467 4.578,70.174 4.786,70.300 5.116 C 70.409 5.400,70.341 5.604,70.149 5.569 C 69.296 5.413,68.800 5.645,68.800 6.200 C 68.800 6.530,68.665 6.814,68.500 6.831 C 67.463 6.936,66.648 7.191,66.440 7.473 C 66.308 7.653,65.519 8.115,64.688 8.499 C 63.856 8.884,63.072 9.469,62.945 9.799 C 62.818 10.130,62.343 10.400,61.889 10.400 C 61.435 10.400,60.725 10.706,60.311 11.080 C 59.428 11.880,56.937 11.844,56.011 11.018 C 55.675 10.718,54.950 10.407,54.400 10.327 C 53.850 10.247,53.430 10.005,53.466 9.791 C 53.502 9.576,52.983 9.380,52.312 9.355 C 51.637 9.330,50.929 9.017,50.727 8.655 C 50.516 8.279,49.857 8.000,49.180 8.000 C 48.398 8.000,48.000 7.798,48.000 7.400 C 48.000 6.985,47.583 6.800,46.643 6.800 C 45.805 6.800,45.197 6.570,45.055 6.200 C 44.929 5.870,44.391 5.600,43.862 5.600 C 43.332 5.600,42.689 5.348,42.433 5.039 C 42.177 4.731,41.517 4.366,40.967 4.228 C 40.417 4.089,40.075 3.802,40.207 3.588 C 40.351 3.355,39.559 3.200,38.224 3.200 C 36.560 3.200,36.000 3.344,36.000 3.773 C 36.000 4.088,35.640 4.460,35.201 4.600 C 34.201 4.917,33.518 8.000,34.448 8.000 C 34.621 8.000,34.671 8.990,34.559 10.200 C 34.423 11.672,34.503 12.400,34.801 12.400 C 35.047 12.400,35.143 12.569,35.015 12.775 C 34.888 12.982,35.012 13.297,35.292 13.475 C 35.571 13.654,35.818 14.520,35.841 15.400 C 35.887 17.250,36.246 18.841,36.691 19.171 C 36.861 19.297,37.048 20.111,37.106 20.980 C 37.164 21.849,37.434 22.701,37.706 22.874 C 38.072 23.107,38.045 23.193,37.600 23.207 C 37.113 23.222,37.132 23.326,37.700 23.757 C 38.478 24.348,38.771 29.077,38.000 28.600 C 37.780 28.464,37.600 28.705,37.600 29.135 C 37.600 29.565,36.970 30.470,36.200 31.146 C 35.430 31.822,34.800 32.670,34.800 33.031 C 34.800 33.448,34.583 33.602,34.200 33.455 C 33.870 33.329,33.600 33.439,33.600 33.700 C 33.600 34.247,31.673 36.000,31.071 36.000 C 30.849 36.000,30.769 36.103,30.895 36.228 C 31.020 36.354,30.330 37.249,29.361 38.218 C 28.393 39.186,27.600 40.101,27.600 40.250 C 27.600 40.398,26.779 41.296,25.775 42.244 C 24.244 43.690,23.948 44.212,23.935 45.484 C 23.900 49.088,24.818 49.800,29.691 49.947 C 31.714 50.008,33.557 50.177,33.785 50.323 C 34.310 50.658,35.855 50.797,41.600 51.026 C 47.335 51.255,48.000 51.399,48.000 52.408 C 48.000 52.843,48.203 53.155,48.450 53.100 C 48.698 53.045,49.086 53.537,49.314 54.193 C 49.542 54.849,49.976 55.633,50.278 55.935 C 50.580 56.237,50.724 56.810,50.597 57.208 C 50.471 57.607,50.583 58.066,50.846 58.228 C 51.148 58.415,51.218 58.354,51.038 58.062 C 50.881 57.808,50.940 57.600,51.169 57.600 C 51.398 57.600,51.697 58.049,51.835 58.597 C 51.973 59.146,52.246 59.495,52.443 59.374 C 52.639 59.252,52.800 59.604,52.800 60.157 C 52.800 60.709,53.052 61.304,53.361 61.480 C 53.669 61.656,53.984 62.250,54.061 62.800 C 54.137 63.350,54.515 64.035,54.900 64.323 C 55.285 64.610,55.600 65.086,55.600 65.380 C 55.600 65.675,56.131 66.483,56.779 67.177 C 57.427 67.872,57.967 68.521,57.979 68.620 C 57.991 68.719,58.000 69.160,58.000 69.600 C 58.000 70.040,58.248 70.400,58.551 70.400 C 58.854 70.400,59.326 70.670,59.600 71.000 C 61.224 72.957,65.989 69.894,65.997 66.887 C 65.999 66.386,66.270 65.871,66.600 65.745 C 66.973 65.602,67.200 64.992,67.200 64.134 C 67.200 63.343,67.366 62.855,67.588 62.993 C 67.802 63.125,68.100 62.730,68.250 62.116 C 68.400 61.502,68.682 60.895,68.876 60.768 C 70.136 59.937,69.639 55.783,68.202 55.128 C 67.664 54.883,67.320 54.529,67.436 54.342 C 67.552 54.154,66.737 54.000,65.624 54.000 C 64.466 54.000,63.600 54.181,63.600 54.424 C 63.600 54.657,63.808 54.719,64.062 54.562 C 64.350 54.384,64.415 54.452,64.234 54.745 C 64.075 55.002,63.798 55.122,63.618 55.011 C 63.438 54.900,63.068 55.077,62.796 55.404 C 62.524 55.732,62.424 56.000,62.574 56.000 C 62.723 56.000,62.526 56.540,62.136 57.200 C 61.746 57.860,61.232 58.400,60.994 58.400 C 60.301 58.400,59.644 57.552,59.873 56.955 C 59.988 56.653,59.794 56.296,59.442 56.161 C 59.089 56.025,58.800 55.583,58.800 55.177 C 58.800 54.772,58.547 54.296,58.238 54.120 C 57.928 53.944,57.208 52.775,56.636 51.523 C 56.065 50.270,55.415 49.133,55.192 48.995 C 54.969 48.857,54.891 48.576,55.019 48.370 C 55.146 48.163,54.969 47.886,54.625 47.754 C 54.281 47.622,54.000 47.290,54.000 47.017 C 54.000 45.364,51.835 44.197,48.590 44.100 C 46.494 44.037,45.263 43.821,45.000 43.470 C 44.724 43.102,44.246 43.032,43.462 43.244 C 42.835 43.413,41.852 43.372,41.275 43.152 C 40.698 42.933,39.680 42.782,39.013 42.817 C 38.346 42.852,37.575 42.863,37.300 42.841 C 36.582 42.782,36.679 41.200,37.400 41.200 C 37.773 41.200,38.000 40.822,38.000 40.200 C 38.000 39.578,38.227 39.200,38.600 39.200 C 38.930 39.200,39.200 38.973,39.200 38.695 C 39.200 38.417,39.602 38.012,40.093 37.795 C 40.584 37.578,41.185 36.996,41.429 36.501 C 41.673 36.007,42.351 35.191,42.936 34.689 C 43.521 34.186,44.000 33.555,44.000 33.287 C 44.000 33.019,44.180 32.800,44.400 32.800 C 44.620 32.800,45.170 32.430,45.622 31.978 C 46.608 30.992,47.042 24.731,46.100 25.093 C 45.825 25.199,45.577 25.041,45.549 24.743 C 45.521 24.444,45.449 23.840,45.390 23.400 C 45.330 22.960,45.228 21.835,45.163 20.900 C 45.086 19.806,44.853 19.200,44.508 19.200 C 44.109 19.200,43.991 18.540,44.044 16.600 C 44.099 14.633,44.800 12.544,44.800 14.350 C 44.800 14.543,45.340 14.808,46.000 14.940 C 46.691 15.078,47.200 15.434,47.200 15.777 C 47.200 16.128,47.434 16.285,47.765 16.158 C 48.075 16.039,49.684 16.602,51.340 17.410 C 52.996 18.217,54.518 18.774,54.722 18.648 C 54.926 18.522,55.415 18.775,55.809 19.209 C 56.232 19.678,57.037 20.000,57.782 20.000 C 58.474 20.000,59.282 20.225,59.579 20.500 C 60.010 20.900,60.061 20.900,59.835 20.500 C 59.664 20.198,59.788 20.000,60.148 20.000 C 60.475 20.000,60.981 19.771,61.271 19.491 C 61.562 19.211,62.733 18.544,63.873 18.009 C 65.013 17.474,65.913 16.853,65.873 16.628 C 65.833 16.403,66.243 16.152,66.784 16.071 C 67.326 15.989,67.975 15.641,68.226 15.296 C 68.522 14.892,68.949 14.772,69.430 14.956 C 69.840 15.114,70.051 15.117,69.898 14.965 C 69.537 14.603,72.019 12.415,72.800 12.407 C 73.632 12.399,73.751 18.001,72.931 18.601 C 72.515 18.905,72.373 20.291,72.350 24.290 L 72.319 29.577 73.831 31.003 C 74.662 31.787,76.031 32.816,76.871 33.288 C 77.712 33.761,78.400 34.341,78.400 34.577 C 78.400 34.814,78.767 35.237,79.216 35.517 C 79.664 35.797,79.923 36.200,79.792 36.413 C 79.660 36.626,79.802 36.800,80.107 36.800 C 80.411 36.800,81.083 37.250,81.600 37.800 C 82.117 38.350,82.373 38.803,82.170 38.806 C 81.966 38.809,82.068 38.982,82.397 39.189 C 83.366 39.802,82.196 40.543,79.900 40.770 C 79.735 40.787,79.600 41.070,79.600 41.400 C 79.600 41.730,79.341 42.000,79.025 42.000 C 78.617 42.000,78.457 42.465,78.472 43.600 C 78.484 44.480,78.643 45.200,78.825 45.200 C 79.007 45.200,79.394 45.695,79.684 46.300 C 80.302 47.589,86.937 48.036,89.066 46.932 C 89.630 46.639,90.898 46.400,91.884 46.400 C 94.506 46.400,96.691 44.818,96.443 43.100 C 96.419 42.935,96.574 42.800,96.787 42.800 C 96.999 42.800,96.801 42.170,96.347 41.400 C 95.893 40.630,95.636 40.000,95.776 40.000 C 96.229 40.000,94.624 38.537,93.875 38.267 C 93.476 38.123,93.264 37.820,93.404 37.593 C 93.545 37.366,93.488 37.230,93.278 37.290 C 93.069 37.351,92.334 36.815,91.645 36.100 C 90.957 35.385,90.190 34.800,89.942 34.800 C 89.411 34.800,87.600 32.928,87.600 32.379 C 87.600 32.171,87.465 32.042,87.300 32.094 C 87.135 32.146,86.431 31.651,85.735 30.994 C 85.039 30.337,83.476 28.909,82.260 27.821 C 81.045 26.733,80.144 25.690,80.260 25.504 C 80.375 25.317,80.480 23.097,80.493 20.570 C 80.513 16.792,80.631 15.908,81.158 15.599 C 81.511 15.393,81.678 15.219,81.528 15.212 C 81.378 15.205,81.412 14.657,81.602 13.992 C 81.843 13.151,81.817 12.866,81.516 13.052 C 81.230 13.229,81.164 12.994,81.321 12.360 C 81.986 9.679,81.717 2.203,80.951 2.054 C 80.538 1.973,80.079 1.715,79.930 1.479 C 79.517 0.822,77.288 0.794,77.039 1.442 M293.345 12.200 C 293.174 12.646,292.464 12.800,290.581 12.800 C 289.187 12.800,287.939 12.975,287.807 13.189 C 287.674 13.403,286.854 13.770,285.983 14.005 C 285.112 14.239,284.400 14.604,284.400 14.815 C 284.400 15.027,284.130 15.200,283.800 15.200 C 283.470 15.200,283.200 15.470,283.200 15.800 C 283.200 16.133,282.844 16.400,282.400 16.400 C 281.421 16.400,278.400 19.425,278.400 20.405 C 278.400 20.795,278.130 21.218,277.800 21.345 C 277.470 21.471,277.200 21.791,277.200 22.056 C 277.200 22.321,276.906 22.862,276.546 23.260 C 276.186 23.657,275.839 24.463,275.775 25.050 C 275.710 25.637,275.433 26.256,275.158 26.426 C 274.874 26.601,274.619 27.716,274.567 29.010 C 274.516 30.262,274.278 31.482,274.037 31.723 C 273.496 32.264,273.455 38.095,273.989 38.629 C 274.204 38.844,274.413 39.976,274.454 41.146 C 274.497 42.350,274.774 43.517,275.094 43.837 C 275.404 44.147,275.732 44.986,275.823 45.701 C 275.913 46.415,276.260 47.200,276.593 47.444 C 276.927 47.688,277.200 48.074,277.200 48.301 C 277.200 48.529,277.470 48.818,277.800 48.945 C 278.130 49.071,278.400 49.443,278.400 49.771 C 278.400 50.483,281.280 53.600,281.938 53.600 C 282.192 53.600,282.400 53.762,282.400 53.961 C 282.400 54.159,282.940 54.510,283.600 54.740 C 284.260 54.970,284.800 55.348,284.800 55.579 C 284.800 55.811,285.228 56.000,285.751 56.000 C 286.274 56.000,286.926 56.270,287.200 56.600 C 287.483 56.940,288.355 57.200,289.216 57.200 C 290.074 57.200,290.806 57.417,290.900 57.700 C 291.149 58.449,302.471 58.693,302.313 57.945 C 302.234 57.574,302.857 57.345,304.373 57.188 C 305.568 57.065,306.618 56.747,306.706 56.482 C 306.794 56.217,307.280 56.000,307.784 56.000 C 308.289 56.000,308.926 55.730,309.200 55.400 C 309.474 55.070,310.023 54.800,310.420 54.800 C 310.818 54.800,311.413 54.530,311.743 54.200 C 312.073 53.870,312.471 53.600,312.627 53.600 C 312.784 53.600,313.115 53.322,313.364 52.982 C 313.612 52.642,314.217 52.334,314.708 52.297 L 315.600 52.230 315.600 42.915 C 315.600 34.318,315.546 33.598,314.900 33.579 C 314.515 33.567,310.276 33.576,305.481 33.599 C 295.146 33.648,295.200 33.628,295.200 37.275 C 295.200 40.311,295.410 40.400,302.574 40.400 L 308.400 40.400 308.400 44.000 C 308.400 46.933,308.289 47.600,307.800 47.600 C 306.850 47.600,306.643 47.707,305.913 48.579 C 305.536 49.031,305.221 49.244,305.213 49.054 C 305.206 48.864,304.763 48.995,304.228 49.345 C 303.694 49.695,302.524 50.099,301.628 50.242 C 300.733 50.385,300.000 50.659,300.000 50.851 C 300.000 51.365,292.897 51.290,292.725 50.774 C 292.647 50.540,291.814 50.245,290.875 50.119 C 289.769 49.971,288.735 49.487,287.941 48.745 C 287.267 48.115,286.538 47.600,286.322 47.600 C 285.827 47.600,284.431 45.953,284.413 45.349 C 284.406 45.101,284.149 44.690,283.842 44.435 C 283.535 44.180,283.158 43.303,283.005 42.487 C 282.852 41.670,282.537 40.885,282.306 40.742 C 281.530 40.262,281.465 33.067,282.214 30.511 C 282.586 29.240,282.924 28.020,282.965 27.800 C 283.005 27.580,283.293 26.950,283.605 26.400 C 283.917 25.850,284.178 25.296,284.186 25.168 C 284.303 23.253,291.819 19.001,294.130 19.543 C 294.311 19.585,294.345 19.435,294.206 19.210 C 294.045 18.949,294.749 18.800,296.143 18.800 C 297.348 18.800,298.395 18.985,298.470 19.211 C 298.545 19.436,299.373 19.714,300.309 19.826 C 302.435 20.083,306.000 22.398,306.000 23.522 C 306.000 23.731,306.270 24.126,306.600 24.400 C 306.930 24.674,307.200 25.298,307.200 25.787 C 307.200 27.499,309.691 28.820,311.021 27.815 C 311.449 27.491,312.372 27.220,313.071 27.213 C 314.764 27.196,315.980 26.067,315.044 25.383 C 314.632 25.081,314.400 24.317,314.400 23.256 C 314.400 22.051,314.237 21.600,313.800 21.600 C 313.281 21.600,312.956 20.345,313.153 19.100 C 313.179 18.935,313.020 18.800,312.800 18.800 C 312.281 18.800,310.800 17.319,310.800 16.800 C 310.800 16.580,310.607 16.400,310.371 16.400 C 310.136 16.400,309.692 16.175,309.385 15.900 C 308.032 14.686,307.558 14.364,306.577 13.991 C 306.003 13.773,305.340 13.713,305.105 13.859 C 304.867 14.006,304.792 13.937,304.936 13.704 C 305.292 13.128,304.277 12.800,302.139 12.800 C 301.076 12.800,300.098 12.555,299.743 12.200 C 299.324 11.782,298.300 11.600,296.359 11.600 C 294.253 11.600,293.519 11.746,293.345 12.200 M352.311 12.146 C 352.011 12.446,350.634 12.774,349.251 12.874 C 347.868 12.974,346.616 13.240,346.468 13.466 C 346.321 13.692,345.705 13.998,345.100 14.146 C 344.495 14.294,344.000 14.592,344.000 14.808 C 344.000 15.023,343.792 15.200,343.539 15.200 C 342.878 15.200,340.002 18.412,339.987 19.167 C 339.980 19.515,339.710 20.149,339.387 20.576 C 338.555 21.677,338.563 28.106,339.398 28.941 C 339.909 29.452,340.252 30.432,340.370 31.724 C 340.387 31.902,340.567 31.944,340.771 31.818 C 340.975 31.692,341.258 31.954,341.400 32.400 C 341.542 32.846,341.797 33.125,341.968 33.020 C 342.139 32.914,342.659 33.181,343.123 33.614 C 343.587 34.046,344.132 34.400,344.334 34.400 C 344.537 34.400,344.926 34.670,345.200 35.000 C 345.474 35.330,346.194 35.600,346.800 35.600 C 347.406 35.600,348.118 35.860,348.382 36.179 C 348.646 36.497,349.613 36.812,350.531 36.879 C 351.458 36.946,352.165 37.194,352.122 37.435 C 352.073 37.703,352.997 37.905,354.519 37.960 C 356.183 38.020,357.101 38.238,357.318 38.624 C 357.511 38.969,358.256 39.200,359.177 39.200 C 360.175 39.200,360.795 39.411,360.945 39.800 C 361.071 40.130,361.556 40.400,362.022 40.400 C 363.722 40.400,365.600 42.755,365.600 44.888 C 365.600 45.940,365.423 46.800,365.208 46.800 C 364.992 46.800,364.702 47.250,364.564 47.800 C 364.426 48.350,364.063 48.800,363.757 48.800 C 363.450 48.800,363.200 48.958,363.200 49.151 C 363.200 49.345,362.615 49.720,361.900 49.985 C 361.185 50.250,360.287 50.632,359.905 50.833 C 359.003 51.309,353.316 51.311,353.022 50.835 C 352.897 50.634,352.077 50.348,351.198 50.200 C 350.319 50.051,349.600 49.778,349.600 49.592 C 349.600 49.406,349.237 49.139,348.794 48.998 C 348.351 48.857,348.072 48.607,348.174 48.443 C 348.388 48.096,346.984 46.800,346.395 46.800 C 346.178 46.800,346.000 46.282,346.000 45.649 C 346.000 45.016,345.730 44.274,345.400 44.000 C 345.070 43.726,344.800 42.906,344.800 42.178 C 344.800 41.264,344.583 40.788,344.100 40.642 C 342.878 40.271,340.813 40.502,340.349 41.061 C 340.103 41.357,339.384 41.600,338.751 41.600 L 337.600 41.600 337.600 44.324 C 337.600 46.099,337.804 47.317,338.187 47.824 C 338.510 48.251,338.780 49.005,338.787 49.500 C 338.794 49.995,338.986 50.400,339.213 50.400 C 339.439 50.400,339.741 50.715,339.883 51.100 C 340.223 52.020,342.980 54.800,343.553 54.800 C 343.799 54.800,344.000 55.070,344.000 55.400 C 344.000 55.730,344.135 55.979,344.300 55.953 C 345.403 55.778,346.400 56.086,346.400 56.600 C 346.400 56.930,346.535 57.179,346.700 57.153 C 348.351 56.892,350.800 57.279,350.800 57.800 C 350.800 58.693,361.113 58.693,361.455 57.800 C 361.612 57.393,362.250 57.200,363.443 57.200 C 364.738 57.200,365.200 57.042,365.200 56.600 C 365.200 56.200,365.600 56.000,366.400 56.000 C 367.200 56.000,367.600 55.800,367.600 55.400 C 367.600 55.070,367.780 54.800,368.000 54.800 C 368.677 54.800,371.600 51.547,371.600 50.795 C 371.600 50.405,371.849 49.990,372.153 49.874 C 372.690 49.667,372.879 48.926,373.536 44.459 C 373.776 42.830,373.725 42.270,373.326 42.116 C 373.037 42.005,372.800 41.495,372.800 40.983 C 372.800 37.786,366.213 32.000,362.572 32.000 C 361.392 32.000,360.356 31.595,360.586 31.223 C 360.685 31.062,359.661 30.890,358.310 30.841 C 356.764 30.786,355.696 30.545,355.427 30.193 C 355.176 29.863,354.143 29.597,352.920 29.546 C 351.776 29.498,350.920 29.329,351.018 29.171 C 351.215 28.852,350.247 28.400,349.367 28.400 C 347.891 28.400,345.405 24.165,346.517 23.543 C 346.893 23.332,347.200 22.733,347.200 22.212 C 347.200 21.483,347.478 21.202,348.400 21.000 C 349.060 20.855,349.600 20.594,349.600 20.421 C 349.600 20.247,350.361 20.003,351.291 19.878 C 352.222 19.754,353.047 19.460,353.125 19.226 C 353.328 18.615,357.179 18.682,357.419 19.300 C 357.526 19.575,358.280 19.835,359.096 19.878 C 359.925 19.921,360.787 20.241,361.053 20.604 C 361.314 20.961,361.634 21.241,361.764 21.227 C 362.884 21.100,363.200 21.305,363.200 22.157 C 363.200 22.684,363.470 23.218,363.800 23.345 C 364.171 23.487,364.400 24.095,364.400 24.938 C 364.400 26.933,365.050 27.253,368.934 27.168 C 372.026 27.099,372.355 27.016,372.562 26.246 C 372.964 24.747,372.816 23.273,372.200 22.657 C 371.870 22.327,371.594 21.729,371.587 21.329 C 371.580 20.928,371.310 20.251,370.987 19.824 C 370.664 19.396,370.400 18.721,370.400 18.324 C 370.400 17.926,370.199 17.600,369.953 17.600 C 369.707 17.600,368.783 16.877,367.900 15.994 C 367.017 15.111,365.823 14.273,365.247 14.131 C 364.671 13.989,363.836 13.638,363.390 13.350 C 362.945 13.062,361.559 12.793,360.310 12.752 C 358.831 12.704,357.967 12.490,357.832 12.139 C 357.547 11.397,353.054 11.403,352.311 12.146 M323.297 34.885 L 323.400 57.000 327.200 57.000 L 331.000 57.000 331.000 35.000 L 331.000 13.000 327.097 12.885 L 323.193 12.771 323.297 34.885 M68.617 45.183 C 67.325 46.530,67.004 49.067,68.054 49.629 C 68.464 49.848,68.800 50.305,68.800 50.643 C 68.800 50.981,69.025 51.490,69.300 51.775 C 69.575 52.060,70.508 53.117,71.374 54.124 C 72.240 55.131,73.126 55.846,73.342 55.712 C 73.566 55.574,73.634 55.734,73.500 56.085 C 73.345 56.486,73.600 56.854,74.232 57.142 C 74.764 57.384,75.200 57.777,75.200 58.015 C 75.200 58.253,75.380 58.336,75.600 58.200 C 75.820 58.064,76.000 58.224,76.000 58.557 C 76.000 58.889,76.279 59.316,76.619 59.507 C 76.960 59.697,77.268 60.246,77.304 60.727 C 77.341 61.207,77.562 61.600,77.796 61.600 C 78.292 61.600,79.600 63.036,79.600 63.581 C 79.600 63.785,79.808 64.081,80.062 64.238 C 80.367 64.427,80.414 64.346,80.200 64.000 C 79.986 63.654,80.033 63.573,80.338 63.762 C 80.592 63.919,80.800 64.287,80.800 64.581 C 80.800 64.874,81.070 65.218,81.400 65.345 C 81.730 65.471,82.000 65.851,82.000 66.187 C 82.000 66.524,82.270 66.800,82.600 66.800 C 82.930 66.800,83.200 67.070,83.200 67.400 C 83.200 67.730,83.458 68.000,83.773 68.000 C 84.088 68.000,84.462 68.366,84.605 68.814 C 84.747 69.262,85.839 70.628,87.032 71.850 C 88.224 73.071,89.200 74.229,89.200 74.421 C 89.200 74.614,89.565 74.967,90.011 75.206 C 90.457 75.445,90.746 75.766,90.652 75.920 C 90.558 76.074,91.294 76.248,92.288 76.307 C 96.011 76.528,97.633 72.444,94.946 69.616 C 94.207 68.837,93.498 67.882,93.372 67.494 C 93.246 67.106,92.975 66.892,92.771 67.018 C 92.567 67.144,92.400 66.956,92.400 66.600 C 92.400 66.244,92.233 66.056,92.029 66.182 C 91.825 66.308,91.548 66.066,91.414 65.643 C 91.279 65.220,90.895 64.769,90.559 64.640 C 90.224 64.511,90.061 64.224,90.198 64.003 C 90.335 63.781,90.200 63.600,89.897 63.600 C 89.595 63.600,88.935 62.867,88.432 61.971 C 87.929 61.076,87.267 60.247,86.961 60.130 C 86.655 60.012,86.499 59.764,86.614 59.578 C 86.728 59.392,86.452 59.042,86.000 58.800 C 85.548 58.558,85.283 58.189,85.412 57.980 C 85.542 57.771,85.277 57.600,84.824 57.600 C 84.358 57.600,84.000 57.339,84.000 57.000 C 84.000 56.670,83.743 56.400,83.428 56.400 C 83.113 56.400,82.798 56.000,82.728 55.510 C 82.658 55.021,82.184 54.413,81.675 54.161 C 81.166 53.908,80.754 53.543,80.760 53.351 C 80.766 53.158,80.417 52.594,79.985 52.097 C 79.553 51.600,79.200 50.996,79.200 50.754 C 79.200 50.512,78.930 50.418,78.600 50.545 C 78.231 50.686,78.000 50.544,78.000 50.175 C 78.000 49.845,77.730 49.471,77.400 49.345 C 77.070 49.218,76.800 48.864,76.800 48.557 C 76.800 48.251,76.530 48.000,76.200 48.000 C 75.870 48.000,75.600 47.730,75.600 47.400 C 75.600 47.070,75.449 46.800,75.264 46.800 C 75.079 46.800,74.494 46.210,73.964 45.489 C 72.680 43.743,70.136 43.597,68.617 45.183 " stroke="none" fill="#339363" fill-rule="evenodd"></path><path id="path4" d="M91.371 64.297 C 92.015 65.009,92.630 65.504,92.738 65.396 C 92.845 65.288,92.858 65.155,92.767 65.100 C 92.675 65.045,92.060 64.551,91.400 64.001 L 90.200 63.003 91.371 64.297 " stroke="none" fill="#0000ff" fill-rule="evenodd"></path></g></svg>